<?xml version="1.0" encoding="utf-8"?>
<!-- Generator: Adobe Illustrator 19.1.0, SVG Export Plug-In . SVG Version: 6.00 Build 0)  -->
<svg version="1.1" id="Layer_1" xmlns="http://www.w3.org/2000/svg" xmlns:xlink="http://www.w3.org/1999/xlink" x="0px" y="0px"
	 viewBox="61.9 486.6 125 30" style="enable-background:new 61.9 486.6 125 30;" xml:space="preserve">
<style type="text/css">
	.st0{fill:#FFFFFF;}
	.st1{fill:#0DB2D3;}
	.st2{fill:#4174B8;}
	.st3{fill:#1D3D6F;}
	.st4{fill:none;}
	.st5{font-family:'Poppins-Bold';}
	.st6{font-size:14px;}
</style>
<rect x="61.9" y="486.6" class="st0" width="125" height="30"/>
<g>
	<path class="st1" d="M108.8,514.6H86.1c-6.8,0-12.3-5.5-12.3-12.3c0-6.8,5.5-12.3,12.3-12.3h5.1c0.6,0,1.1,0.5,1.1,1.1
		s-0.5,1.1-1.1,1.1h-5.1c-5.5,0-10,4.5-10,10c0,5.5,4.5,10,10,10h20.5l-9.5-14l-6.1,8.8c-0.2,0.3-0.6,0.5-0.9,0.5h0
		c-0.4,0-0.7-0.2-0.9-0.5l-4.2-5.9c-0.4-0.5-0.2-1.2,0.3-1.6c0.5-0.4,1.2-0.2,1.6,0.3l3.3,4.6l6.1-8.8c0.2-0.3,0.6-0.5,0.9-0.5h0
		c0.4,0,0.7,0.2,0.9,0.5l11.6,17.2c0.2,0.3,0.3,0.8,0.1,1.2C109.6,514.4,109.2,514.6,108.8,514.6"/>
	<path class="st2" d="M96.1,492.4h-8.6c-0.7,0-1.2-0.5-1.2-1.2c0-0.7,0.5-1.2,1.2-1.2h8.6c0.7,0,1.2,0.5,1.2,1.2
		S96.7,492.4,96.1,492.4"/>
	<path class="st3" d="M97.1,490h-3.9l-2.6-3.2H89l1,3.2h-1.4c-0.7,0-1.2,0.5-1.2,1.2c0,0.7,0.5,1.2,1.2,1.2H90l-1,3.1h1.6l2.6-3.1
		h3.9c0.7,0,1.2-0.5,1.2-1.2C98.3,490.5,97.8,490,97.1,490"/>
</g>
<path class="st1" d="M363,423.8h-19.6c-3.7,0-6.6-3-6.6-6.6s2.9-6.6,6.6-6.6h53.5c3.6,0,6.4,3,6.4,6.6s-2.9,6.6-6.4,6.6h-19.7v61
	c0,3.9-3.2,7-7.1,7c-3.9,0-7.1-3.1-7.1-7L363,423.8L363,423.8z M407.8,436.8c0-3.9,3-7,6.9-7s7,3.1,7,7v6.2
	c3.2-7.6,9.2-13.3,15.3-13.3c4.4,0,6.9,2.9,6.9,6.9c0,3.7-2.4,6.1-5.5,6.7c-9.9,1.7-16.7,9.3-16.7,23.7v17.9c0,3.8-3.1,6.9-7,6.9
	c-3.8,0-6.9-3-6.9-6.9V436.8z M448.4,473.7v-0.3c0-13.1,10.2-19.6,25.1-19.6c6.8,0,11.6,1,16.3,2.5v-1.5c0-8.6-5.3-13.2-15.1-13.2
	c-5.3,0-9.7,0.9-13.5,2.4c-0.8,0.2-1.5,0.3-2.2,0.3c-3.2,0-5.9-2.5-5.9-5.8c0-2.5,1.7-4.7,3.8-5.5c5.8-2.2,11.6-3.6,19.6-3.6
	c9.1,0,15.9,2.4,20.1,6.8c4.5,4.4,6.6,10.8,6.6,18.7v29.9c0,3.8-3,6.7-6.8,6.7c-4,0-6.8-2.8-6.8-5.9v-2.3
	c-4.1,4.9-10.5,8.9-19.8,8.9C458.5,492.4,448.4,485.9,448.4,473.7L448.4,473.7z M490,469.3v-4.1c-3.6-1.4-8.3-2.4-13.8-2.4
	c-9,0-14.3,3.8-14.3,10.1v0.2c0,5.9,5.2,9.2,11.8,9.2C483,482.3,490,477,490,469.3z M543.3,492.3h-0.7c-3.8,0-6.3-2.4-7.9-6.1
	l-20.2-46.3c-0.3-1-0.8-2.2-0.8-3.5c0-3.5,3.1-6.7,6.9-6.7c3.8,0,5.8,2.2,6.9,5.1l15.6,40.3l15.9-40.5c1-2.4,2.9-4.8,6.6-4.8
	c3.8,0,6.8,2.9,6.8,6.7c0,1.3-0.5,2.6-0.8,3.3l-20.2,46.5C549.6,489.8,547.1,492.3,543.3,492.3z M610.7,492.5
	c-17.6,0-31.2-12.8-31.2-31.5v-0.2c0-17.4,12.3-31.6,29.7-31.6c19.3,0,28.9,15.9,28.9,29.9c0,3.9-3,6.7-6.6,6.7h-38.1
	c1.5,9.9,8.5,15.4,17.5,15.4c5.9,0,10.5-2.1,14.4-5.3c1-0.8,2-1.3,3.6-1.3c3.1,0,5.5,2.4,5.5,5.6c0,1.7-0.8,3.2-1.8,4.3
	C627,489.4,620.1,492.5,610.7,492.5L610.7,492.5z M624.5,456.5c-0.9-9-6.2-16-15.4-16c-8.5,0-14.5,6.6-15.8,16H624.5z M653.1,413.5
	c0-3.8,3-6.9,6.9-6.9s7,3.1,7,6.9v71.3c0,3.9-3.1,6.9-7,6.9c-3.8,0-6.9-3-6.9-6.9V413.5z"/>
<g>
	<path class="st1" d="M367.2,589.3L339,523.1c-0.5-1-0.8-2.1-0.8-3.3c0-3.8,3.1-6.9,7.1-6.9c3.7,0,6.1,2.1,7.2,5.1l23.2,58.1
		l23.6-58.5c0.9-2.4,3.5-4.6,6.8-4.6c3.9,0,7,3,7,6.8c0,1-0.3,2.2-0.7,3l-28.3,66.7c-1.5,3.6-4.1,5.8-8.2,5.8h-0.8
		C371.3,595,368.7,592.8,367.2,589.3L367.2,589.3z M416.4,576.4v-0.2c0-13.1,10.2-19.6,25.1-19.6c6.8,0,11.6,1,16.3,2.5v-1.5
		c0-8.6-5.3-13.2-15.1-13.2c-5.3,0-9.7,0.9-13.5,2.4c-0.8,0.2-1.5,0.3-2.2,0.3c-3.2,0-5.9-2.5-5.9-5.8c0-2.5,1.7-4.7,3.8-5.5
		c5.8-2.2,11.6-3.6,19.6-3.6c9.1,0,15.9,2.4,20.1,6.8c4.5,4.4,6.6,10.8,6.6,18.7v29.9c0,3.8-3,6.7-6.8,6.7c-4,0-6.8-2.8-6.8-5.9
		v-2.3c-4.1,4.9-10.5,8.9-19.8,8.9C426.5,595.1,416.4,588.6,416.4,576.4L416.4,576.4z M458,572v-4.1c-3.6-1.4-8.3-2.4-13.8-2.4
		c-9,0-14.3,3.8-14.3,10.1v0.2c0,5.9,5.2,9.2,11.8,9.2C451,585,458,579.7,458,572z M484.6,563.9v-0.2c0-17.3,13.3-31.7,31.6-31.7
		c9.5,0,16.1,3.1,21.3,7.6c0.9,0.8,2.2,2.5,2.2,4.8c0,3.6-2.9,6.3-6.4,6.3c-1.7,0-3.2-0.7-4.1-1.4c-3.6-3-7.5-5.2-13-5.2
		c-10.1,0-17.6,8.7-17.6,19.3v0.2c0,10.8,7.5,19.4,18.2,19.4c5.5,0,9.8-2.2,13.6-5.4c0.8-0.7,2.2-1.5,3.8-1.5c3.3,0,6,2.8,6,6.1
		c0,1.8-0.7,3.3-2,4.4c-5.4,5.2-12,8.6-22.1,8.6C498,595.3,484.6,581.1,484.6,563.9L484.6,563.9z M548.6,563.9v-0.2
		c0-17.3,13.3-31.7,31.6-31.7c9.5,0,16.1,3.1,21.3,7.6c0.9,0.8,2.2,2.5,2.2,4.8c0,3.6-2.9,6.3-6.4,6.3c-1.7,0-3.2-0.7-4.1-1.4
		c-3.6-3-7.5-5.2-13-5.2c-10.1,0-17.6,8.7-17.6,19.3v0.2c0,10.8,7.5,19.4,18.2,19.4c5.5,0,9.8-2.2,13.6-5.4c0.8-0.7,2.2-1.5,3.8-1.5
		c3.3,0,6,2.8,6,6.1c0,1.8-0.7,3.3-2,4.4c-5.4,5.2-12,8.6-22.1,8.6C561.9,595.3,548.6,581.1,548.6,563.9L548.6,563.9z M617.3,516.8
		c0-4.1,3.5-6.8,7.9-6.8c4.5,0,7.9,2.6,7.9,6.8v0.7c0,4.1-3.5,6.9-7.9,6.9c-4.5,0-7.9-2.8-7.9-6.9V516.8z M618.4,539.5
		c0-3.9,3-7,6.9-7s7,3.1,7,7v48.1c0,3.9-3.1,6.9-7,6.9c-3.8,0-6.9-3-6.9-6.9V539.5L618.4,539.5z M650.4,539.5c0-3.9,3-7,6.9-7
		s7,3.1,7,7v3c3.9-5.6,9.5-10.6,19-10.6c13.7,0,21.6,9.2,21.6,23.2v32.4c0,3.9-3,6.9-6.9,6.9s-7-3-7-6.9v-28.1
		c0-9.4-4.7-14.8-13-14.8c-8.1,0-13.7,5.6-13.7,15.1v27.9c0,3.9-3.1,6.9-7,6.9c-3.8,0-6.9-3-6.9-6.9L650.4,539.5L650.4,539.5z
		 M749.6,595.3c-17.6,0-31.2-12.8-31.2-31.5v-0.2c0-17.4,12.3-31.6,29.7-31.6c19.3,0,28.9,15.9,28.9,29.9c0,3.9-3,6.7-6.6,6.7h-38.1
		c1.5,9.9,8.5,15.4,17.5,15.4c5.9,0,10.5-2.1,14.4-5.3c1-0.8,2-1.3,3.6-1.3c3.1,0,5.5,2.4,5.5,5.6c0,1.7-0.8,3.2-1.8,4.3
		C765.9,592.2,759,595.3,749.6,595.3L749.6,595.3z M763.4,559.3c-0.9-9-6.2-16-15.4-16c-8.5,0-14.5,6.6-15.8,16H763.4z"/>
</g>
<g>
	<path class="st1" d="M340.3,654.2V654c0-22.9,17.1-41.6,41.5-41.6c12.4,0,20.6,3.7,27.6,9.1c1.5,1.2,2.8,3.1,2.8,5.6
		c0,3.9-3.1,6.9-7,6.9c-2,0-3.3-0.7-4.3-1.4c-5.5-4.5-11.5-7.2-19.2-7.2c-15.3,0-26.6,12.7-26.6,28.4v0.2
		c0,15.8,11.2,28.5,26.6,28.5c8.5,0,14.3-2.8,20.1-7.7c1-0.9,2.5-1.6,4.3-1.6c3.6,0,6.7,3,6.7,6.6c0,2.2-1,3.9-2.3,5.1
		c-7.6,6.7-16.2,10.8-29.2,10.8C357.8,695.6,340.3,677.3,340.3,654.2L340.3,654.2z M427.9,616.6c0-3.8,3-6.9,6.9-6.9s7,3.1,7,6.9
		v71.3c0,3.9-3.1,6.9-7,6.9c-3.8,0-6.9-3-6.9-6.9V616.6z M459.8,617.1c0-4.1,3.5-6.8,7.9-6.8c4.5,0,7.9,2.6,7.9,6.8v0.7
		c0,4.1-3.5,6.9-7.9,6.9c-4.5,0-7.9-2.8-7.9-6.9V617.1z M460.8,639.8c0-3.9,3-7,6.9-7s7,3.1,7,7v48.1c0,3.9-3.1,6.9-7,6.9
		c-3.8,0-6.9-3-6.9-6.9V639.8z M492.9,639.8c0-3.9,3-7,6.9-7s7,3.1,7,7v3c3.9-5.6,9.5-10.6,19-10.6c13.7,0,21.6,9.2,21.6,23.2v32.4
		c0,3.9-3,6.9-6.9,6.9s-7-3-7-6.9v-28.2c0-9.4-4.7-14.8-13-14.8c-8.1,0-13.7,5.6-13.7,15.1v27.9c0,3.9-3.1,6.9-7,6.9
		c-3.8,0-6.9-3-6.9-6.9L492.9,639.8L492.9,639.8z M564,617.1c0-4.1,3.5-6.8,7.9-6.8c4.5,0,7.9,2.6,7.9,6.8v0.7
		c0,4.1-3.5,6.9-7.9,6.9c-4.5,0-7.9-2.8-7.9-6.9V617.1z M565,639.8c0-3.9,3-7,6.9-7s7,3.1,7,7v48.1c0,3.9-3.1,6.9-7,6.9
		c-3.8,0-6.9-3-6.9-6.9V639.8z M593.7,664.2V664c0-17.3,13.3-31.7,31.6-31.7c9.5,0,16.1,3.1,21.3,7.6c0.9,0.8,2.2,2.5,2.2,4.8
		c0,3.6-2.9,6.3-6.4,6.3c-1.7,0-3.2-0.7-4.1-1.4c-3.6-3-7.5-5.2-13-5.2c-10.1,0-17.6,8.7-17.6,19.3v0.2c0,10.8,7.5,19.4,18.2,19.4
		c5.5,0,9.8-2.2,13.6-5.4c0.8-0.7,2.2-1.5,3.8-1.5c3.3,0,6,2.8,6,6.1c0,1.8-0.7,3.3-2,4.4c-5.4,5.2-12,8.6-22.1,8.6
		C607.1,695.6,593.7,681.4,593.7,664.2L593.7,664.2z"/>
</g>
<rect x="109.1" y="493.2" class="st4" width="97.6" height="32.5"/>
<text transform="matrix(0.95 0 0 1 109.1471 503.6086)"><tspan x="0" y="0" class="st1 st5 st6">KNOW</tspan><tspan x="0" y="11" class="st1 st5 st6">TRAVEL</tspan></text>
</svg>
